<mxfile host="app.diagrams.net" modified="2020-11-03T09:45:34.950Z" agent="5.0 (Macintosh; Intel Mac OS X 10_15_4) AppleWebKit/537.36 (KHTML, like Gecko) Chrome/86.0.4240.111 Safari/537.36" etag="Yu1mhDEG-QSH-Bc6UTI_" version="13.8.8" type="github">
  <diagram id="yO7neSoAsJAFCI8EGz-e" name="Page-1">
    <mxGraphModel dx="1930" dy="1080" grid="1" gridSize="10" guides="1" tooltips="1" connect="1" arrows="1" fold="1" page="1" pageScale="1" pageWidth="827" pageHeight="1169" math="0" shadow="0">
      <root>
        <mxCell id="0" />
        <mxCell id="1" parent="0" />
        <mxCell id="3l6li1fzc4Xr9PB6jVyk-1" value="" style="rounded=0;whiteSpace=wrap;html=1;" vertex="1" parent="1">
          <mxGeometry x="30" y="40" width="120" height="170" as="geometry" />
        </mxCell>
        <mxCell id="3l6li1fzc4Xr9PB6jVyk-3" value="" style="rounded=0;whiteSpace=wrap;html=1;fillColor=#f5f5f5;strokeColor=#666666;fontColor=#333333;" vertex="1" parent="1">
          <mxGeometry x="45" y="80" width="90" height="120" as="geometry" />
        </mxCell>
        <mxCell id="3l6li1fzc4Xr9PB6jVyk-4" value="用户信息" style="text;html=1;strokeColor=none;fillColor=none;align=center;verticalAlign=middle;whiteSpace=wrap;rounded=0;" vertex="1" parent="1">
          <mxGeometry x="60" y="49" width="60" height="20" as="geometry" />
        </mxCell>
        <mxCell id="3l6li1fzc4Xr9PB6jVyk-5" value="device_id" style="rounded=0;whiteSpace=wrap;html=1;" vertex="1" parent="1">
          <mxGeometry x="52.5" y="94" width="75" height="20" as="geometry" />
        </mxCell>
        <mxCell id="3l6li1fzc4Xr9PB6jVyk-6" value="is_login" style="rounded=0;whiteSpace=wrap;html=1;" vertex="1" parent="1">
          <mxGeometry x="52.5" y="120" width="75" height="20" as="geometry" />
        </mxCell>
        <mxCell id="3l6li1fzc4Xr9PB6jVyk-7" value="ss_id" style="rounded=0;whiteSpace=wrap;html=1;" vertex="1" parent="1">
          <mxGeometry x="52.5" y="146" width="75" height="20" as="geometry" />
        </mxCell>
        <mxCell id="3l6li1fzc4Xr9PB6jVyk-8" value="uid" style="rounded=0;whiteSpace=wrap;html=1;" vertex="1" parent="1">
          <mxGeometry x="52.5" y="172" width="75" height="20" as="geometry" />
        </mxCell>
        <mxCell id="3l6li1fzc4Xr9PB6jVyk-9" value="" style="rounded=0;whiteSpace=wrap;html=1;" vertex="1" parent="1">
          <mxGeometry x="30" y="230" width="120" height="220" as="geometry" />
        </mxCell>
        <mxCell id="3l6li1fzc4Xr9PB6jVyk-10" value="" style="rounded=0;whiteSpace=wrap;html=1;fillColor=#f5f5f5;strokeColor=#666666;fontColor=#333333;" vertex="1" parent="1">
          <mxGeometry x="45" y="270" width="90" height="170" as="geometry" />
        </mxCell>
        <mxCell id="3l6li1fzc4Xr9PB6jVyk-11" value="环境信息" style="text;html=1;strokeColor=none;fillColor=none;align=center;verticalAlign=middle;whiteSpace=wrap;rounded=0;" vertex="1" parent="1">
          <mxGeometry x="60" y="239" width="60" height="20" as="geometry" />
        </mxCell>
        <mxCell id="3l6li1fzc4Xr9PB6jVyk-12" value="sessionid" style="rounded=0;whiteSpace=wrap;html=1;" vertex="1" parent="1">
          <mxGeometry x="52.5" y="284" width="75" height="20" as="geometry" />
        </mxCell>
        <mxCell id="3l6li1fzc4Xr9PB6jVyk-13" value="abtest_tag" style="rounded=0;whiteSpace=wrap;html=1;" vertex="1" parent="1">
          <mxGeometry x="52.5" y="310" width="75" height="20" as="geometry" />
        </mxCell>
        <mxCell id="3l6li1fzc4Xr9PB6jVyk-14" value="click_time" style="rounded=0;whiteSpace=wrap;html=1;" vertex="1" parent="1">
          <mxGeometry x="52.5" y="336" width="75" height="20" as="geometry" />
        </mxCell>
        <mxCell id="3l6li1fzc4Xr9PB6jVyk-15" value="app_type" style="rounded=0;whiteSpace=wrap;html=1;" vertex="1" parent="1">
          <mxGeometry x="52.5" y="362" width="75" height="20" as="geometry" />
        </mxCell>
        <mxCell id="3l6li1fzc4Xr9PB6jVyk-18" value="channel" style="rounded=0;whiteSpace=wrap;html=1;" vertex="1" parent="1">
          <mxGeometry x="52.5" y="386" width="75" height="20" as="geometry" />
        </mxCell>
        <mxCell id="3l6li1fzc4Xr9PB6jVyk-19" value="version" style="rounded=0;whiteSpace=wrap;html=1;" vertex="1" parent="1">
          <mxGeometry x="52.5" y="410" width="75" height="20" as="geometry" />
        </mxCell>
        <mxCell id="3l6li1fzc4Xr9PB6jVyk-20" value="协议" style="rounded=0;whiteSpace=wrap;html=1;fillColor=#dae8fc;strokeColor=#6c8ebf;" vertex="1" parent="1">
          <mxGeometry x="30" y="460" width="70" height="60" as="geometry" />
        </mxCell>
        <mxCell id="3l6li1fzc4Xr9PB6jVyk-21" value="URL" style="rounded=0;whiteSpace=wrap;html=1;fillColor=#fff2cc;strokeColor=#d6b656;" vertex="1" parent="1">
          <mxGeometry x="104" y="460" width="70" height="60" as="geometry" />
        </mxCell>
        <mxCell id="3l6li1fzc4Xr9PB6jVyk-22" value="" style="rounded=0;whiteSpace=wrap;html=1;fillColor=#f5f5f5;strokeColor=#666666;fontColor=#333333;" vertex="1" parent="1">
          <mxGeometry x="178" y="460" width="422" height="60" as="geometry" />
        </mxCell>
        <mxCell id="3l6li1fzc4Xr9PB6jVyk-24" value="route" style="whiteSpace=wrap;html=1;aspect=fixed;fillColor=#0050ef;strokeColor=#001DBC;fontColor=#ffffff;" vertex="1" parent="1">
          <mxGeometry x="183" y="460" width="60" height="60" as="geometry" />
        </mxCell>
        <mxCell id="3l6li1fzc4Xr9PB6jVyk-25" value="tp" style="whiteSpace=wrap;html=1;aspect=fixed;fillColor=#f8cecc;strokeColor=#b85450;" vertex="1" parent="1">
          <mxGeometry x="373" y="460" width="60" height="60" as="geometry" />
        </mxCell>
        <mxCell id="3l6li1fzc4Xr9PB6jVyk-28" value="QueryParam" style="rounded=0;whiteSpace=wrap;html=1;fillColor=#dae8fc;strokeColor=#6c8ebf;" vertex="1" parent="1">
          <mxGeometry x="247" y="460" width="120" height="60" as="geometry" />
        </mxCell>
        <mxCell id="3l6li1fzc4Xr9PB6jVyk-29" value="MiniID &amp;amp; Page (RN应用)" style="rounded=0;whiteSpace=wrap;html=1;fillColor=#1ba1e2;strokeColor=#006EAF;fontColor=#ffffff;" vertex="1" parent="1">
          <mxGeometry x="438" y="460" width="150" height="60" as="geometry" />
        </mxCell>
        <mxCell id="3l6li1fzc4Xr9PB6jVyk-30" value="#" style="rounded=0;whiteSpace=wrap;html=1;fillColor=#ffe6cc;strokeColor=#d79b00;" vertex="1" parent="1">
          <mxGeometry x="605" y="460" width="20" height="60" as="geometry" />
        </mxCell>
        <mxCell id="3l6li1fzc4Xr9PB6jVyk-31" value="" style="rounded=0;whiteSpace=wrap;html=1;fillColor=#b0e3e6;strokeColor=#0e8088;" vertex="1" parent="1">
          <mxGeometry x="630" y="460" width="220" height="740" as="geometry" />
        </mxCell>
        <mxCell id="3l6li1fzc4Xr9PB6jVyk-52" style="edgeStyle=orthogonalEdgeStyle;rounded=0;orthogonalLoop=1;jettySize=auto;html=1;exitX=1;exitY=0.5;exitDx=0;exitDy=0;entryX=0;entryY=0.5;entryDx=0;entryDy=0;" edge="1" parent="1" source="3l6li1fzc4Xr9PB6jVyk-33" target="3l6li1fzc4Xr9PB6jVyk-51">
          <mxGeometry relative="1" as="geometry" />
        </mxCell>
        <mxCell id="3l6li1fzc4Xr9PB6jVyk-33" value="from" style="rounded=0;whiteSpace=wrap;html=1;align=left;" vertex="1" parent="1">
          <mxGeometry x="637" y="471" width="203" height="60" as="geometry" />
        </mxCell>
        <mxCell id="3l6li1fzc4Xr9PB6jVyk-34" value="上页面Route(Native页面)" style="rounded=0;whiteSpace=wrap;html=1;fillColor=#f8cecc;strokeColor=#b85450;" vertex="1" parent="1">
          <mxGeometry x="670" y="501" width="160" height="30" as="geometry" />
        </mxCell>
        <mxCell id="3l6li1fzc4Xr9PB6jVyk-35" value="&lt;span style=&quot;color: rgb(255 , 255 , 255)&quot;&gt;MiniID &amp;amp; Page (RN应用)&lt;/span&gt;" style="rounded=0;whiteSpace=wrap;html=1;fillColor=#dae8fc;strokeColor=#6c8ebf;" vertex="1" parent="1">
          <mxGeometry x="670" y="471" width="160" height="30" as="geometry" />
        </mxCell>
        <mxCell id="3l6li1fzc4Xr9PB6jVyk-53" value="" style="edgeStyle=orthogonalEdgeStyle;rounded=0;orthogonalLoop=1;jettySize=auto;html=1;" edge="1" parent="1" source="3l6li1fzc4Xr9PB6jVyk-37" target="3l6li1fzc4Xr9PB6jVyk-51">
          <mxGeometry relative="1" as="geometry" />
        </mxCell>
        <mxCell id="3l6li1fzc4Xr9PB6jVyk-37" value="block" style="rounded=0;whiteSpace=wrap;html=1;align=left;fillColor=#d5e8d4;strokeColor=#82b366;" vertex="1" parent="1">
          <mxGeometry x="637" y="540" width="203" height="60" as="geometry" />
        </mxCell>
        <mxCell id="3l6li1fzc4Xr9PB6jVyk-38" value="SPM&lt;br&gt;页面访问唯一id" style="rounded=0;whiteSpace=wrap;html=1;align=left;" vertex="1" parent="1">
          <mxGeometry x="637" y="608" width="53" height="60" as="geometry" />
        </mxCell>
        <mxCell id="3l6li1fzc4Xr9PB6jVyk-55" style="edgeStyle=orthogonalEdgeStyle;rounded=0;orthogonalLoop=1;jettySize=auto;html=1;exitX=1;exitY=0.5;exitDx=0;exitDy=0;entryX=0;entryY=0.5;entryDx=0;entryDy=0;" edge="1" parent="1" source="3l6li1fzc4Xr9PB6jVyk-40" target="3l6li1fzc4Xr9PB6jVyk-54">
          <mxGeometry relative="1" as="geometry" />
        </mxCell>
        <mxCell id="3l6li1fzc4Xr9PB6jVyk-40" value="lspm&lt;br&gt;dspm&lt;br&gt;gspm" style="rounded=0;whiteSpace=wrap;html=1;fillColor=#d5e8d4;strokeColor=#82b366;" vertex="1" parent="1">
          <mxGeometry x="690" y="608" width="150" height="60" as="geometry" />
        </mxCell>
        <mxCell id="3l6li1fzc4Xr9PB6jVyk-41" value="refer&lt;br&gt;&lt;font style=&quot;font-size: 5px&quot;&gt;上一个来源的#后信息&lt;/font&gt;" style="rounded=0;whiteSpace=wrap;html=1;align=left;" vertex="1" parent="1">
          <mxGeometry x="638.5" y="680" width="61.5" height="60" as="geometry" />
        </mxCell>
        <mxCell id="3l6li1fzc4Xr9PB6jVyk-56" style="edgeStyle=orthogonalEdgeStyle;rounded=0;orthogonalLoop=1;jettySize=auto;html=1;entryX=0;entryY=0.5;entryDx=0;entryDy=0;" edge="1" parent="1" source="3l6li1fzc4Xr9PB6jVyk-42" target="3l6li1fzc4Xr9PB6jVyk-54">
          <mxGeometry relative="1" as="geometry" />
        </mxCell>
        <mxCell id="3l6li1fzc4Xr9PB6jVyk-42" value="pid&lt;br&gt;refer" style="rounded=0;whiteSpace=wrap;html=1;fillColor=#f8cecc;strokeColor=#b85450;" vertex="1" parent="1">
          <mxGeometry x="691.5" y="680" width="150" height="60" as="geometry" />
        </mxCell>
        <mxCell id="3l6li1fzc4Xr9PB6jVyk-43" value="物料信息" style="rounded=0;whiteSpace=wrap;html=1;align=left;" vertex="1" parent="1">
          <mxGeometry x="638.5" y="750" width="61.5" height="80" as="geometry" />
        </mxCell>
        <mxCell id="3l6li1fzc4Xr9PB6jVyk-58" style="edgeStyle=orthogonalEdgeStyle;rounded=0;orthogonalLoop=1;jettySize=auto;html=1;exitX=1;exitY=0.5;exitDx=0;exitDy=0;" edge="1" parent="1" source="3l6li1fzc4Xr9PB6jVyk-44" target="3l6li1fzc4Xr9PB6jVyk-57">
          <mxGeometry relative="1" as="geometry" />
        </mxCell>
        <mxCell id="3l6li1fzc4Xr9PB6jVyk-44" value="goodsId&lt;br&gt;styleId&lt;br&gt;size&lt;br&gt;price&lt;br&gt;....." style="rounded=0;whiteSpace=wrap;html=1;fillColor=#b1ddf0;strokeColor=#10739e;" vertex="1" parent="1">
          <mxGeometry x="691.5" y="750" width="150" height="80" as="geometry" />
        </mxCell>
        <mxCell id="3l6li1fzc4Xr9PB6jVyk-61" style="edgeStyle=orthogonalEdgeStyle;rounded=0;orthogonalLoop=1;jettySize=auto;html=1;exitX=1;exitY=0.5;exitDx=0;exitDy=0;entryX=0;entryY=0.5;entryDx=0;entryDy=0;" edge="1" parent="1" source="3l6li1fzc4Xr9PB6jVyk-45" target="3l6li1fzc4Xr9PB6jVyk-59">
          <mxGeometry relative="1" as="geometry" />
        </mxCell>
        <mxCell id="3l6li1fzc4Xr9PB6jVyk-45" value="requestId&lt;br&gt;接口请求的id，默认网关生成，没有服务端生成" style="rounded=0;whiteSpace=wrap;html=1;align=center;fillColor=#fad9d5;strokeColor=#ae4132;" vertex="1" parent="1">
          <mxGeometry x="638.5" y="840" width="201.5" height="80" as="geometry" />
        </mxCell>
        <mxCell id="3l6li1fzc4Xr9PB6jVyk-62" style="edgeStyle=orthogonalEdgeStyle;rounded=0;orthogonalLoop=1;jettySize=auto;html=1;exitX=1;exitY=0.5;exitDx=0;exitDy=0;entryX=0;entryY=0.5;entryDx=0;entryDy=0;" edge="1" parent="1" source="3l6li1fzc4Xr9PB6jVyk-47" target="3l6li1fzc4Xr9PB6jVyk-59">
          <mxGeometry relative="1" as="geometry">
            <mxPoint x="900" y="960" as="targetPoint" />
          </mxGeometry>
        </mxCell>
        <mxCell id="3l6li1fzc4Xr9PB6jVyk-47" value="scene(映射tp的集合)&lt;br&gt;(场景，对搜索推荐效果非常重要)" style="rounded=0;whiteSpace=wrap;html=1;align=center;fillColor=#fff2cc;strokeColor=#d6b656;" vertex="1" parent="1">
          <mxGeometry x="640" y="927" width="201.5" height="80" as="geometry" />
        </mxCell>
        <mxCell id="3l6li1fzc4Xr9PB6jVyk-63" style="edgeStyle=orthogonalEdgeStyle;rounded=0;orthogonalLoop=1;jettySize=auto;html=1;exitX=1;exitY=0.5;exitDx=0;exitDy=0;entryX=0;entryY=0.5;entryDx=0;entryDy=0;" edge="1" parent="1" source="3l6li1fzc4Xr9PB6jVyk-48" target="3l6li1fzc4Xr9PB6jVyk-59">
          <mxGeometry relative="1" as="geometry">
            <mxPoint x="890" y="960" as="targetPoint" />
          </mxGeometry>
        </mxCell>
        <mxCell id="3l6li1fzc4Xr9PB6jVyk-48" value="dgRequestId&lt;br&gt;（搜索推荐的dgRequestId，对搜索推荐效果非常重要&lt;br&gt;）" style="rounded=0;whiteSpace=wrap;html=1;align=center;fillColor=#d5e8d4;strokeColor=#82b366;" vertex="1" parent="1">
          <mxGeometry x="641" y="1014" width="201.5" height="80" as="geometry" />
        </mxCell>
        <mxCell id="3l6li1fzc4Xr9PB6jVyk-49" value="extra" style="rounded=0;whiteSpace=wrap;html=1;align=center;" vertex="1" parent="1">
          <mxGeometry x="640" y="1100" width="201.5" height="50" as="geometry" />
        </mxCell>
        <mxCell id="3l6li1fzc4Xr9PB6jVyk-50" value="埋点信息" style="text;html=1;strokeColor=none;fillColor=none;align=center;verticalAlign=middle;whiteSpace=wrap;rounded=0;" vertex="1" parent="1">
          <mxGeometry x="711.75" y="1160" width="60" height="20" as="geometry" />
        </mxCell>
        <mxCell id="3l6li1fzc4Xr9PB6jVyk-51" value="表示语义和tp重复，删除" style="rounded=0;whiteSpace=wrap;html=1;align=center;fillColor=#d80073;strokeColor=#A50040;fontColor=#ffffff;" vertex="1" parent="1">
          <mxGeometry x="890" y="501" width="120" height="60" as="geometry" />
        </mxCell>
        <mxCell id="3l6li1fzc4Xr9PB6jVyk-54" value="合并为pid" style="rounded=0;whiteSpace=wrap;html=1;align=center;" vertex="1" parent="1">
          <mxGeometry x="890" y="640" width="120" height="60" as="geometry" />
        </mxCell>
        <mxCell id="3l6li1fzc4Xr9PB6jVyk-57" value="采用服务端下发机制，从当前页面绑定model中获取" style="rounded=0;whiteSpace=wrap;html=1;align=center;fillColor=#d80073;strokeColor=#A50040;fontColor=#ffffff;" vertex="1" parent="1">
          <mxGeometry x="900" y="760" width="120" height="60" as="geometry" />
        </mxCell>
        <mxCell id="3l6li1fzc4Xr9PB6jVyk-59" value="接口下发，端上透传" style="rounded=0;whiteSpace=wrap;html=1;align=center;fillColor=#d80073;strokeColor=#A50040;fontColor=#ffffff;" vertex="1" parent="1">
          <mxGeometry x="900" y="937" width="120" height="60" as="geometry" />
        </mxCell>
      </root>
    </mxGraphModel>
  </diagram>
</mxfile>
